<svg xmlns="http://www.w3.org/2000/svg" xmlns:xlink="http://www.w3.org/1999/xlink" xml:space="preserve" width="50" height="48" version="1" viewBox="0 0 25000 24000" style="clip-rule:evenodd;fill-rule:evenodd;image-rendering:optimizeQuality;shape-rendering:geometricPrecision;text-rendering:geometricPrecision">
  <defs>
    <style type="text/css">
      
    .fil1 {fill:black}
    .fil0 {fill:white}
   
    </style>
  </defs>
  <g id="_x0020_1">
    <metadata id="CorelCorpID_0Corel-Layer"/>
    <path class="fil0" d="M5000 0l20000 0 0 24000-20000 0c-2751 0-5000-2249-5000-4999l0-14001c0-2751 2249-5000 5000-5000z"/>
    <path class="fil1" d="M19954 16533l-2412-2412c-479-480-1273-462-1771 31l-1214 1215c-77-40-157-85-238-134-767-426-1816-1009-2919-2112-1107-1107-1690-2157-2116-2928-45-80-90-161-130-233l816-812 399-398c498-498 511-1292 31-1771l-2412-2413c-480-479-1273-466-1771 32l-677 682 18 17c-229 291-417 628-560 987-135 349-216 677-252 1004-318 2640 888 5053 4161 8321 4524 4524 8169 4179 8326 4165 341-40 673-121 1005-251 358-139 694-332 981-556l14 14 686-673c497-502 515-1295 35-1775z"/>
  </g>
</svg>
