<svg xmlns="http://www.w3.org/2000/svg" version="1.1" x="0" y="0" width="348.1" height="348.1" viewBox="0 0 348.1 348.1" xml:space="preserve"><path d="M340.3 275.1l-53.8-53.8c-10.7-10.7-28.4-10.3-39.5 0.7l-27.1 27.1c-1.7-0.9-3.5-1.9-5.3-3 -17.1-9.5-40.5-22.5-65.1-47.1 -24.7-24.7-37.7-48.1-47.2-65.3 -1-1.8-2-3.6-2.9-5.2l18.2-18.1 8.9-8.9c11.1-11.1 11.4-28.8 0.7-39.5L73.4 8.2C62.7-2.5 45-2.2 33.9 8.9l-15.1 15.2 0.4 0.4c-5.1 6.5-9.3 14-12.5 22C3.7 54.3 1.9 61.6 1.1 68.9 -6 127.8 20.9 181.6 93.9 254.5c100.9 100.9 182.2 93.2 185.7 92.9 7.6-0.9 15-2.7 22.4-5.6 8-3.1 15.5-7.4 21.9-12.4l0.3 0.3 15.3-15C350.6 303.5 351 285.8 340.3 275.1z"/></svg>