<svg xmlns:svg="http://www.w3.org/2000/svg" xmlns="http://www.w3.org/2000/svg" xml:space="preserve" width="30" height="29.9" version="1" viewBox="0 0 3003.5 2989.5"><style>.s0{fill:#000;}</style><defs><style type="text/css">
   
    .fil0 {fill:black}
   
  </style></defs><g transform="translate(-49103,-86842)"><path class="fil0" d="m51356 87963c0-619-504-1121-1127-1121-622 0-1126 502-1126 1121 0 619 504 1121 1126 1121 623 0 1127-502 1127-1121zm-1127 841c-465 0-845-378-845-841 0-464 380-841 845-841 466 0 845 377 845 841 0 463-379 841-845 841zM52024 89353l-689-686c-102 159-238 294-398 396l689 686c110 110 289 110 398 0 110-109 110-287 0-396z" fill="#000"/></g></svg>