<svg xmlns="http://www.w3.org/2000/svg" xml:space="preserve" width="100" height="100" version="1" viewBox="0 0 10000 10000" style="image-rendering:optimizeQuality;shape-rendering:geometricPrecision;text-rendering:geometricPrecision"><defs><style type="text/css">
    .fil0 {fill:#fff}
   </style></defs><path class="fil0" d="M7240 0l-4480 0c-1522 0-2760 1238-2760 2760l0 4480c0 1522 1238 2760 2760 2760l4480 0c1522 0 2760-1238 2760-2760l0-4480c0-1522-1238-2760-2760-2760zm1873 7240c0 1033-840 1873-1873 1873l-4480 0c-1033 0-1873-840-1873-1873l0-4480c0-1033 840-1873 1873-1873l4480 0c1033 0 1873 840 1873 1873l0 4480 0 0zM5000 2423c-1421 0-2577 1156-2577 2577 0 1421 1156 2577 2577 2577 1421 0 2577-1156 2577-2577 0-1421-1156-2577-2577-2577zm0 4266c-932 0-1689-757-1689-1689 0-932 757-1689 1689-1689 932 0 1689 757 1689 1689 0 932-757 1689-1689 1689zM7685 1671c-171 0-339 69-460 191-121 120-191 288-191 460 0 171 70 339 191 460 121 121 289 190 460 190 171 0 339-69 460-190 121-121 190-289 190-460 0-172-69-340-190-460-121-122-289-191-460-191z"/></svg>