<svg xmlns="http://www.w3.org/2000/svg" xml:space="preserve" width="47" height="100" version="1" viewBox="0 0 4641 9945" style="image-rendering:optimizeQuality;shape-rendering:geometricPrecision;text-rendering:geometricPrecision"><defs><style type="text/css">
    .fil0 {fill:#fff}
   </style></defs><path class="fil0" d="M1003 1926c0 251 0 1369 0 1369l-1003 0 0 1675 1003 0 0 4975 2061 0 0-4975 1383 0c0 0 129-803 192-1681-180 0-1567 0-1567 0 0 0 0-974 0-1145 0-171 224-401 446-401 222 0 690 0 1123 0 0-228 0-1016 0-1743-578 0-1236 0-1526 0-2163 0-2112 1676-2112 1926z"/></svg>