<svg xmlns="http://www.w3.org/2000/svg" xmlns:xlink="http://www.w3.org/1999/xlink" xml:space="preserve" width="57" height="50" version="1" viewBox="0 0 3456 3057" style="clip-rule:evenodd;fill-rule:evenodd;image-rendering:optimizeQuality;shape-rendering:geometricPrecision;text-rendering:geometricPrecision">
  <defs>
    <style type="text/css">
      
    .fil0 {fill:#fff}
    .fil1 {fill:#fff;fill-rule:nonzero}
   
    </style>
  </defs>
  <g id="_x0020_1">
    <metadata id="CorelCorpID_0Corel-Layer"/>
    <polygon class="fil0" points="577 2406 219 2406 219 1646 577 1367 "/>
    <polygon class="fil0" points="1015 2406 657 2406 657 1304 1015 1025 "/>
    <polygon class="fil0" points="1452 2406 1094 2406 1094 962 1452 684 "/>
    <polygon class="fil0" points="1890 2406 1532 2406 1532 620 1890 342 "/>
    <polygon class="fil0" points="2333 2406 1975 2406 1975 278 2333 0 "/>
    <polygon class="fil0" points="139 1696 0 1813 0 2406 139 2406 "/>
    <polygon class="fil0" points="3455 1010 2926 497 2926 2406 3455 2406 "/>
    <polygon class="fil0" points="2845 418 2414 0 2414 2406 2845 2406 "/>
    <path class="fil1" d="M115 3047l-114 0 0-440 195 0c23 0 44 4 63 12 19 7 35 17 47 30 13 12 23 27 32 43 8 17 14 34 16 52 2 18 2 36 0 54-2 18-8 35-16 52-9 16-19 30-32 43-12 13-28 23-47 30-19 8-40 11-63 11l-81 0 0 113zm81-214c11 0 22-4 30-13 8-8 13-19 15-31 2-12 3-25 1-37-2-12-7-22-15-31-8-9-19-13-31-13-8 0-17 0-26 0-9 0-19 0-30 0-12 0-20 0-25 0l0 125 81 0z"/>
    <path id="1" class="fil1" d="M728 2891l87 139 0 17-127 0-76-130-59 0 0 130-113 0 0-440 194 0c28 0 53 6 75 16 23 11 40 25 52 42 13 16 22 35 27 56 6 21 7 42 4 63-2 21-9 41-20 60-11 19-26 35-44 47zm-94-73c12 0 22-4 30-12 8-7 13-16 15-27 2-11 3-21 1-32-2-11-7-20-15-28-8-7-18-11-31-11-8 0-16 0-25 0-9 0-19 0-30 0-11 0-20 0-26 0l0 110 81 0z"/>
    <path id="2" class="fil1" d="M1291 2728c13 30 19 63 19 100 0 37-6 70-19 99-13 30-30 54-52 72-21 19-45 33-73 42-27 10-54 15-83 15-28 0-56-5-83-15-27-9-51-23-73-42-21-18-38-42-51-72-13-29-20-62-20-99 0-37 7-70 20-100 13-29 30-53 51-71 22-19 46-33 73-42 27-10 55-15 83-15 29 0 56 5 83 15 28 9 52 23 73 42 22 18 39 42 52 71zm-319 100c0 25 6 47 17 66 11 19 25 32 41 40 17 9 34 13 54 13 19 0 37-4 53-13 17-8 30-21 41-40 11-19 17-41 17-66 0-25-6-47-17-66-11-19-24-32-41-40-16-8-34-12-53-12-20 0-37 4-54 12-16 8-30 21-41 40-11 19-17 41-17 66z"/>
    <path id="3" class="fil1" d="M1369 2827c0-36 6-69 19-98 13-29 31-53 53-71 21-18 45-32 72-42 27-9 54-14 83-14 31 0 60 6 88 16 27 10 51 27 73 51 22 24 36 54 43 88l-112 0c-17-35-48-52-92-52-35 0-62 11-81 35-19 23-29 52-29 87 0 36 10 66 30 88 20 22 47 33 80 33 24 0 43-4 58-12 15-8 27-22 37-42l-94 0 0-98 209 0c3 54-1 97-13 129-14 43-40 75-76 96-36 20-76 31-121 31-39 0-75-8-109-24-34-17-62-42-84-77-23-35-34-76-34-124z"/>
    <path id="4" class="fil1" d="M2183 2891l87 139 0 17-126 0-76-130-59 0 0 130-114 0 0-440 195 0c28 0 53 6 75 16 22 11 39 25 52 42 12 16 21 35 27 56 5 21 6 42 4 63-3 21-10 41-21 60-11 19-25 35-44 47zm-93-73c12 0 21-4 29-12 8-7 14-16 16-27 2-11 2-21 0-32-1-11-6-20-15-28-8-7-18-11-30-11-8 0-17 0-26 0-9 0-19 0-30 0-11 0-19 0-25 0l0 110 81 0z"/>
    <polygon id="5" class="fil1" points="2615 2607 2615 2708 2451 2708 2451 2770 2602 2770 2602 2870 2451 2870 2451 2947 2621 2947 2621 3047 2339 3047 2339 2607 "/>
    <path id="6" class="fil1" d="M2797 2912c0 11 5 20 14 27 10 7 21 12 35 14 13 2 27 2 40 1 14-1 26-5 35-12 10-7 15-15 15-25 0-14-8-24-22-29-14-5-34-9-60-11-51-3-91-16-119-36-27-21-41-53-41-99-1-36 10-66 33-91 23-24 52-40 85-45 33-6 67-6 100 0 34 5 62 21 85 45 24 25 35 55 35 91l-108 0c0-13-6-24-19-31-12-8-26-11-41-11-15 0-29 4-42 11-13 8-20 18-21 30-1 15 4 26 16 32 12 6 30 10 55 13 21 2 39 4 52 7 14 2 29 6 46 12 18 6 31 13 41 22 9 8 17 20 24 36 7 15 11 34 11 55 0 20-4 38-13 55-8 16-19 30-33 41-14 11-30 20-48 28-18 7-37 12-57 13-20 2-40 2-60 0-19-2-38-6-56-14-18-8-34-17-48-28-13-12-24-26-32-43-8-17-12-37-12-58l110 0z"/>
    <path id="7" class="fil1" d="M3207 2912c0 11 5 20 14 27 10 7 21 12 35 14 13 2 27 2 41 1 13-1 25-5 34-12 10-7 15-15 15-25 0-14-7-24-21-29-15-5-35-9-60-11-52-3-92-16-119-36-28-21-42-53-42-99-1-36 10-66 33-91 24-24 52-40 85-45 34-6 67-6 101 0 33 5 62 21 85 45 23 25 34 55 34 91l-108 0c0-13-6-24-18-31-13-8-27-11-41-11-16 0-30 4-43 11-13 8-20 18-21 30-1 15 5 26 17 32 12 6 30 10 54 13 22 2 39 4 53 7 13 2 28 6 45 12 18 6 31 13 41 22 9 8 17 20 24 36 7 15 11 34 11 55 0 20-4 38-12 55-9 16-20 30-34 41-14 11-30 20-48 28-17 7-36 12-57 13-20 2-40 2-59 0-20-2-39-6-57-14-18-8-34-17-47-28-14-12-25-26-33-43-8-17-12-37-11-58l109 0z"/>
  </g>
</svg>
